PathFileType	3	(X/Y/Z)	RCH0000002 BBF 11.c3d
DataRate	CameraRate	NumFrames	NumMarkers	Units	OrigDataRate	OrigDataStartFrame	OrigNumFrames
100.0	100.0	17	23	mm	100.0	296	502
Frame#	Time	T2			T10			MAN			LASI			RASI			LPSI			RPSI			LPAT			LKNE			LANK			LMED			LTOE			RPAT			RKNE			RANK			RMED			RHEE			RTOE			LHEE			RTHI			LTHI			RTIB			LTIB			
		X1	Y1	Z1	X2	Y2	Z2	X3	Y3	Z3	X4	Y4	Z4	X5	Y5	Z5	X6	Y6	Z6	X7	Y7	Z7	X8	Y8	Z8	X9	Y9	Z9	X10	Y10	Z10	X11	Y11	Z11	X12	Y12	Z12	X13	Y13	Z13	X14	Y14	Z14	X15	Y15	Z15	X16	Y16	Z16	X17	Y17	Z17	X18	Y18	Z18	X19	Y19	Z19	X20	Y20	Z20	X21	Y21	Z21	X22	Y22	Z22	X23	Y23	Z23	

296	2.950	255.88394	-42.92285	967.46225	258.93260	-47.31276	777.97075	384.95531	-5.10176	936.27056	318.45424	73.10077	639.91949	383.14185	-92.28171	634.50567	234.68365	-21.84695	681.25051	257.67474	-87.18374	675.17887	271.97286	31.42945	353.17328	209.53692	80.42963	330.83102	66.53476	70.49885	92.42293	80.74622	3.23257	112.53376	111.68131	35.52980	70.84672	495.73509	-14.95037	406.67808	475.80892	-74.34893	358.65510	442.68558	-113.97757	94.71769	412.31098	-51.25114	99.80179	388.83877	-96.45976	124.10734	473.84627	-67.42383	82.30001	44.50690	31.62859	139.14906	453.76394	-151.99595	462.59618	226.41712	148.87515	455.51238	481.68565	-153.56035	255.35707	141.86651	140.57576	229.93253	
297	2.960	266.90193	-44.45696	964.06979	270.93223	-46.78445	774.76174	396.07566	-6.27491	933.73298	330.08376	73.86163	636.79529	395.44444	-91.26015	631.78923	246.51971	-21.19833	678.15062	269.77585	-86.56016	672.62104	284.25986	32.40105	349.19320	221.47430	81.02638	327.47254	71.81909	71.55321	93.79109	85.73445	4.22738	113.65270	115.35091	35.91568	70.65165	503.42018	-9.10976	401.64377	485.28562	-69.66267	354.00566	452.92950	-112.97841	90.66731	420.69543	-50.96361	95.45838	398.47487	-96.66275	119.79199	483.03572	-65.69167	78.86189	51.09409	33.15939	141.44355	466.08904	-147.48768	458.27244	238.22426	149.43898	452.19508	493.50870	-149.54190	251.44935	152.02636	141.38619	228.28747	
298	2.970	277.82828	-45.86104	960.80174	283.11364	-46.02575	771.71581	407.14350	-7.35456	931.51049	341.85120	74.48027	633.63925	407.82085	-90.36674	629.44428	258.47211	-20.53302	675.31007	282.00192	-85.93112	670.57991	297.28795	33.22749	345.17184	234.23128	81.54341	323.97611	78.22283	72.86597	95.19486	91.60719	5.45616	114.81756	119.87438	36.40319	70.45774	510.71584	-3.61739	396.74154	494.24768	-65.28759	349.55483	460.70683	-112.42576	87.29200	426.83430	-51.05299	91.92606	405.96210	-97.16638	116.45112	489.77520	-64.48571	75.91589	58.76123	35.05419	143.76983	478.25435	-143.20678	454.21484	250.51299	149.80081	448.84164	503.89674	-145.85328	247.86549	163.38948	142.26567	226.49714	
299	2.980	288.65578	-47.08021	957.76738	295.40795	-45.04105	768.94372	418.14265	-8.30308	929.66892	353.69550	74.93214	630.55110	420.19034	-89.63523	627.56443	270.47340	-19.86540	672.83863	294.27699	-85.30791	669.14298	310.95670	33.86971	341.25311	247.71688	81.97276	320.47133	85.80276	74.42592	96.63228	98.43621	6.90834	116.02799	125.36014	37.01435	70.30364	517.66199	1.26350	392.20397	502.66811	-61.41586	345.49415	466.28694	-112.26911	84.64593	431.03045	-51.45287	89.26749	411.53919	-97.89968	114.10575	494.37057	-63.77106	73.53095	67.53199	37.27887	146.09837	490.10866	-139.35595	450.56974	263.21838	149.94891	445.57841	512.86901	-142.63929	244.69009	175.89049	143.19956	224.64686	
300	2.990	299.37939	-48.06468	955.07887	307.74225	-43.84895	766.55759	429.05770	-9.08531	928.27197	365.56315	75.19542	627.64338	432.47319	-89.10011	626.23258	282.46175	-19.20974	670.84365	306.52645	-84.70265	668.37982	325.16000	34.29468	337.60077	261.82827	82.30528	317.10993	94.57636	76.19321	98.11740	106.28273	8.54560	117.28765	131.90859	37.76378	70.24271	524.27753	5.28954	388.20368	510.49650	-58.23672	341.96747	470.02509	-112.44717	82.71477	433.64822	-52.09577	87.47386	415.51094	-98.80319	112.69392	497.20108	-63.48951	71.72047	77.39595	39.75357	148.40974	501.48959	-136.13040	447.44546	276.27121	149.87966	442.54685	520.48764	-140.03696	241.96146	189.41315	144.15843	222.85794	
301	3.000	309.99596	-48.77272	952.84508	320.04392	-42.48154	764.66403	439.87455	-9.67103	927.37830	377.41049	75.25296	625.03536	444.59594	-88.79331	625.51549	294.38433	-18.58051	669.42298	318.68185	-84.12854	668.33759	339.79498	34.48436	334.38711	276.45724	82.53441	314.05628	104.52122	78.10125	99.67991	115.19685	10.30447	118.60301	139.60806	38.65881	70.33925	530.56130	8.26312	384.84382	517.66927	-55.91786	339.06479	472.31914	-112.89625	81.42598	435.07418	-52.92033	86.47405	418.21233	-99.83441	112.08645	498.67799	-63.56912	70.44952	88.31120	42.35668	150.69539	512.24286	-133.69707	444.90924	289.60013	149.59952	439.89571	526.84842	-138.16105	239.67717	203.79618	145.10274	221.28208	
302	3.010	320.50396	-49.17342	951.16498	332.24480	-40.98270	763.35715	450.58099	-10.03707	927.03811	389.20486	75.09408	622.84559	456.49572	-88.74118	625.45934	306.19944	-17.99223	668.65807	330.68477	-83.59967	669.03800	354.76962	34.44332	331.77990	291.49652	82.65976	311.47556	115.57869	80.06059	101.36176	125.21793	12.10106	119.98097	148.53096	39.69917	70.66264	536.49428	10.05280	382.16023	524.12141	-54.58723	336.82447	473.56593	-113.55601	80.66708	435.68015	-53.87478	86.15148	419.97320	-100.96719	112.11137	499.20404	-63.93316	69.64783	100.21126	44.93268	152.95594	522.23924	-132.17678	442.98896	303.13422	149.12619	437.77137	532.06819	-137.09143	237.80443	218.84358	145.98799	220.09039	
303	3.020	330.90351	-49.24891	950.12130	344.28475	-39.40515	762.71214	461.16743	-10.16912	927.28947	400.92463	74.71584	621.18379	468.12349	-88.96177	626.08657	317.87740	-17.45868	668.60781	342.48942	-83.13021	670.47598	370.00821	34.20340	329.92933	306.84538	82.68957	309.52119	127.66205	81.96465	103.21114	136.37575	13.83739	121.42595	158.73041	40.87621	71.28007	542.04270	10.60492	380.13377	529.79774	-54.31858	335.24209	474.12471	-114.37160	80.30805	435.79399	-54.91639	86.36512	421.08928	-102.18583	112.58170	499.14006	-64.50659	69.22548	113.01545	47.30335	155.19741	531.38677	-131.63234	441.67866	316.80572	148.48859	436.30707	536.27121	-136.86433	236.29298	234.33882	146.76965	219.45797	
304	3.030	341.19659	-48.99598	949.77492	356.11421	-37.80689	762.77985	471.62748	-10.06283	928.15482	412.55817	74.12396	620.14275	479.44575	-89.46291	627.39443	329.39998	-16.99165	669.30386	354.06367	-82.73291	672.62006	385.45446	33.82445	328.95648	322.41460	82.64177	308.32259	140.66805	83.69697	105.27455	148.69182	15.40895	122.93696	170.23775	42.17174	72.24887	547.16240	9.94526	378.70868	534.66189	-55.12292	334.28289	474.29227	-115.29304	80.22300	435.68139	-56.00812	86.97051	421.80315	-103.47653	113.32142	498.78250	-65.21982	69.08828	126.64119	49.28184	157.42612	539.63727	-132.06409	440.94613	330.55287	147.72579	435.61221	539.57735	-137.46884	235.08824	250.06235	147.40681	219.54561	
305	3.040	351.38732	-48.42676	950.16049	367.69580	-36.24702	763.58304	481.95851	-9.72431	929.63784	424.10199	73.33296	619.79117	490.44480	-90.24097	629.35505	340.75887	-16.59938	670.74765	365.38879	-82.41750	675.41432	401.07220	33.39041	328.94470	338.13077	82.54316	307.97477	154.49036	85.13995	107.58788	162.18024	16.71337	124.50567	183.06145	43.55703	73.60940	551.80447	8.17093	377.81189	538.70221	-56.94774	333.89455	474.29158	-116.27320	80.30727	435.53878	-57.11461	87.83722	422.29628	-104.81927	114.18526	498.35338	-66.01030	69.15020	141.01601	50.68884	159.64356	546.98713	-133.41316	440.74082	344.32252	146.88475	435.76267	542.09406	-138.84899	234.14225	265.81084	147.86427	220.48078	
306	3.050	361.48227	-47.56848	951.28361	379.00471	-34.78155	765.11427	492.16198	-9.16975	931.72123	435.55833	72.36581	620.16795	501.11751	-91.28052	631.91703	351.95337	-16.28510	672.90941	376.45786	-82.18894	678.78141	416.84403	33.00100	329.93453	353.93988	82.42696	308.53063	169.03308	86.18491	110.16802	176.84737	17.65956	126.11597	197.18766	44.99257	75.37956	555.92228	5.43501	377.36872	541.93423	-59.68399	334.01742	474.27238	-117.26634	80.48730	435.49607	-58.19939	88.86047	422.69097	-106.18292	115.06983	498.00111	-66.82307	69.34158	156.08686	51.37015	161.84226	553.47335	-135.57096	441.00072	358.07252	146.01718	436.79348	543.91306	-140.91082	233.42050	281.41671	148.11363	222.34057	
307	3.060	371.49071	-46.46205	953.11989	390.02802	-33.45957	767.33587	502.24355	-8.42440	934.36548	446.93265	71.25289	621.27864	511.47289	-92.55492	635.00820	362.98768	-16.04584	675.72897	387.27333	-82.04611	682.62644	432.76844	32.75988	331.92243	369.81003	82.32907	309.99691	184.22246	86.74276	113.00588	192.69018	18.17681	127.74530	212.58247	46.42919	77.55130	559.47926	1.92674	377.31232	544.40021	-63.17951	334.59082	474.32088	-118.22804	80.72284	435.62606	-59.22436	89.96627	423.05933	-107.52480	115.91577	497.80984	-67.61110	69.61261	171.82516	51.21433	164.00368	559.16603	-138.39319	441.65763	371.77362	145.17567	438.69433	545.11159	-143.53290	232.90381	296.76575	148.13378	225.13884	
308	3.070	381.42460	-45.15976	955.61573	400.76332	-32.31989	770.18160	512.21286	-7.52079	937.50887	458.23118	70.03037	623.09414	521.52885	-94.02786	638.53923	373.86817	-15.87188	679.11832	397.84395	-81.98099	686.84119	448.85604	32.76091	334.86305	385.73329	82.28366	312.33386	200.01543	86.75452	116.06234	209.69347	18.22286	129.36736	229.19590	47.81072	80.08969	562.45669	-2.14944	377.58639	546.16616	-67.25664	335.55549	474.47441	-119.11703	81.00242	435.95749	-60.15177	91.11051	423.43625	-108.79450	116.70251	497.81366	-68.33600	69.93279	188.22685	50.16845	166.09842	564.15896	-141.71585	442.64059	385.41101	144.40959	441.40876	545.75705	-146.57879	232.58552	311.81108	147.91217	228.81956	
309	3.080	391.29842	-43.72207	958.69097	411.21659	-31.38863	773.56004	522.08313	-6.49651	941.06887	469.45907	68.73799	625.55178	531.30853	-95.65585	642.40799	384.60094	-15.74683	682.96558	408.18152	-81.97858	691.30849	465.12542	33.07464	338.67441	401.72603	82.31889	315.45867	216.40397	86.20023	119.26765	227.82674	17.78988	130.95539	246.96693	49.07838	82.93432	564.86025	-6.59343	378.14290	547.31758	-71.73085	336.85323	474.73762	-119.89815	81.33449	436.48898	-60.94789	92.27379	423.83313	-109.94048	117.43823	498.01246	-68.96910	70.28735	205.30784	48.24961	168.08851	568.55964	-145.37113	443.87821	398.98535	143.76114	444.83692	545.91321	-149.90957	232.46549	326.58134	147.44718	233.25758	
310	3.090	401.12863	-42.21361	962.24295	421.39994	-30.67775	777.35936	531.87038	-5.39170	944.94473	480.61925	67.41648	628.55870	540.83661	-97.39136	646.50412	395.18990	-15.64836	687.14004	418.29787	-82.01748	695.90652	481.59901	33.73713	343.24504	417.82771	82.45332	319.25234	233.41501	85.10489	122.52487	247.04197	16.90737	132.48514	265.82934	50.17640	86.00290	566.72425	-11.22546	378.93724	547.95431	-76.42760	338.42541	475.09733	-120.54580	81.73699	437.20157	-61.58733	93.45393	424.25024	-110.91761	118.14800	498.38684	-69.49246	70.67217	223.09633	45.54985	169.93110	572.47978	-149.20150	445.30020	412.51333	143.26201	448.84190	545.64630	-153.39490	232.54304	341.18167	146.75185	238.26712	
311	3.100	410.93289	-40.69881	966.15185	431.32927	-30.18462	781.45295	541.59252	-4.24636	949.02123	491.71212	66.10470	631.99698	550.13613	-99.18654	650.71393	405.63569	-15.54953	691.49795	428.20238	-82.07110	700.51292	498.29903	34.74320	348.44249	434.09731	82.69366	323.56897	251.10584	83.54008	125.71704	267.27330	15.64114	133.93646	285.71729	51.05848	89.19680	568.11286	-15.89714	379.92352	548.18545	-81.19514	340.21165	475.53434	-121.04670	82.22767	438.06878	-62.05678	94.65794	424.68607	-111.69382	118.86276	498.91019	-69.89953	71.08842	241.62360	42.23227	171.58244	576.02729	-153.07052	446.83889	426.02755	142.93126	453.25898	545.02941	-156.92152	232.81085	355.78614	145.85777	243.61747	
312	3.110	420.72914	-39.23744	970.28673	441.02229	-29.89267	785.70571	551.26835	-3.09783	953.17335	502.73607	64.83676	635.73024	559.22612	-100.99691	654.92504	415.93536	-15.42049	695.88890	437.90046	-82.10938	705.00861	515.24368	36.04494	354.12201	450.60752	83.03397	328.24697	269.55575	81.62029	128.71716	288.43956	14.08843	135.29292	306.57040	51.69411	92.40790	569.11785	-20.49695	381.05156	548.12456	-85.91192	342.14951	476.03151	-121.40120	82.81701	439.06364	-62.35719	95.89502	425.14336	-112.25451	119.61073	499.55704	-70.19482	71.53784	260.91562	38.51806	173.00095	579.30008	-156.86984	448.43069	439.57545	142.77438	457.90715	544.14426	-160.39845	233.25126	370.62149	144.81744	249.05437	
